<svg width="335" height="249" viewBox="0 0 335 249" fill="none" xmlns="http://www.w3.org/2000/svg">
<path d="M334.309 248.41V212.13L298.039 248.41H334.309Z" fill="#FB1D44"/>
<path d="M135.852 37.6801H150.062C151.712 37.6801 152.932 37.3001 153.722 36.5501C154.512 35.8001 154.902 34.6601 154.902 33.1501C154.902 31.6401 154.502 30.6301 153.722 29.9101C152.932 29.1901 151.712 28.8301 150.062 28.8301H135.852V37.6901V37.6801Z" fill="#FB1D44"/>
<path d="M18.2219 63.7398C19.6619 64.4998 22.2019 64.8698 25.8419 64.8698C29.6819 64.8698 32.3419 64.5298 33.8219 63.8398C35.3019 63.1498 36.0319 62.2598 36.0319 61.1598C36.0319 60.2698 35.5819 59.5298 34.6919 58.9498C33.8019 58.3698 32.1119 57.8998 29.6419 57.5598L20.7819 56.3198C11.7219 55.0798 4.93186 52.3398 0.441864 48.0798C0.351864 47.9898 0.271875 47.8898 0.171875 47.7998V60.4398H15.4219C15.8319 61.8798 16.7619 62.9798 18.2019 63.7398H18.2219Z" fill="#FB1D44"/>
<path d="M25.5302 7.5C35.2802 7.5 42.8702 9.7 48.2902 14.09C51.4202 16.62 53.7802 19.59 55.4202 22.97V8.53H113.18V28.92H95.9502V83.2H73.8002V28.93H57.4702C57.6202 29.64 57.7601 30.35 57.8701 31.09H35.6201C35.2101 29.72 34.2801 28.67 32.8401 27.95C31.4001 27.23 28.8902 26.87 25.3202 26.87C21.7502 26.87 19.1702 27.18 17.8002 27.8C16.4302 28.42 15.7402 29.24 15.7402 30.27C15.7402 31.23 16.1702 32 17.0302 32.59C17.8902 33.17 19.5502 33.64 22.0302 33.98L30.7802 35.11C40.2602 36.35 47.1702 38.94 51.5302 42.89C55.8902 46.84 58.0702 52.18 58.0702 58.91C58.0702 63.99 56.9002 68.44 54.5702 72.25C52.2402 76.06 48.6602 79.01 43.8602 81.11C39.0502 83.21 33.1102 84.25 26.0402 84.25C16.0102 84.25 8.27015 82.05 2.81015 77.66C1.85015 76.89 0.990166 76.06 0.170166 75.21V91.68V115.85V157.4V165.62H36.4802L0.170166 201.93V243.48L78.0302 165.62H122.56L39.7602 248.42H81.3102L164.11 165.62H208.64L125.84 248.42H167.39L250.19 165.62H294.72L211.92 248.42H253.47L334.28 167.61V91.67V0H0.160156V15.55C2.22016 13.57 4.78015 11.92 7.84015 10.6C12.6101 8.54 18.5002 7.51 25.5002 7.51L25.5302 7.5ZM275.1 8.53L284.99 40.56L295.29 8.53H325.78V83.2H303.84V43.44L291.17 83.2H278.71L266.04 43.44V83.2H244.1V8.53H275.1ZM200.51 8.53V52.82C200.51 56.25 201.38 58.91 203.14 60.8C204.89 62.69 207.35 63.63 210.5 63.63C212.56 63.63 214.35 63.22 215.86 62.39C217.37 61.57 218.52 60.35 219.31 58.73C220.1 57.12 220.49 55.14 220.49 52.81V8.53H242.64V50.55C242.64 57.9 241.4 64.08 238.93 69.09C236.46 74.1 232.84 77.88 228.06 80.42C223.29 82.96 217.43 84.23 210.5 84.23C203.57 84.23 197.71 82.96 192.94 80.42C188.17 77.88 184.55 74.1 182.07 69.09C179.6 64.08 178.36 57.9 178.36 50.55V8.53H200.51ZM149.96 8.53C155.66 8.53 160.53 9.54 164.59 11.57C168.64 13.6 171.73 16.46 173.86 20.17C175.99 23.88 177.05 28.24 177.05 33.25C177.05 37.85 176.16 41.82 174.37 45.15C172.58 48.48 170.18 51.04 167.16 52.82L177.05 83.2H153.87L145.84 57.86H135.85V83.2H114.32V8.53H149.96Z" fill="#FB1D44"/>
<path d="M26.5508 120.69C26.9908 122.02 28.1108 123.16 31.0008 123.16C34.0708 123.16 35.3208 121.83 35.3208 120.09C35.3208 118.35 34.4108 117.46 31.3908 116.97L30.0108 116.74C26.0108 116.09 24.1908 114.22 24.1908 111.28C24.1908 108.34 26.6608 106 31.0008 106C34.9808 106 37.0808 108.03 37.5508 110.63H35.0808C34.6408 109.23 33.5708 108.21 30.8908 108.21C27.9008 108.21 26.5508 109.61 26.5508 111.28C26.5508 112.95 27.4608 113.88 30.4008 114.37L31.7808 114.6C35.9708 115.3 37.6808 117.15 37.6808 120.06C37.6808 122.97 35.3408 125.36 30.8908 125.36C26.4408 125.36 24.5708 123.36 24.0508 120.68H26.5508V120.69Z" fill="black"/>
<path d="M53.3989 106.26H55.7689V117.78C55.7689 122.46 52.8589 125.37 48.7989 125.37C44.7389 125.37 41.8789 122.46 41.8789 117.78V106.26H44.2189V117.78C44.2189 121.24 45.9589 123.11 48.7989 123.11C51.6389 123.11 53.3989 121.24 53.3989 117.78V106.26Z" fill="black"/>
<path d="M60.5 125.11V106.26H67.42C71.43 106.26 73.66 108.5 73.66 111.33C73.66 113.18 72.86 114.5 71.66 115.39C72.96 116.3 74.03 117.65 74.03 119.76C74.03 122.93 71.85 125.12 67.71 125.12H60.51L60.5 125.11ZM62.79 114.4H67.47C70.18 114.4 71.29 113.28 71.29 111.41C71.29 109.54 70.17 108.5 67.47 108.5H62.79V114.4ZM62.79 122.87H67.75C70.53 122.87 71.65 121.75 71.65 119.67C71.65 117.72 70.53 116.63 67.75 116.63H62.79V122.87Z" fill="black"/>
<path d="M80.0312 120.69C80.4713 122.02 81.5913 123.16 84.4813 123.16C87.5513 123.16 88.8013 121.83 88.8013 120.09C88.8013 118.35 87.8912 117.46 84.8712 116.97L83.4913 116.74C79.4913 116.09 77.6713 114.22 77.6713 111.28C77.6713 108.34 80.1413 106 84.4813 106C88.4613 106 90.5612 108.03 91.0312 110.63H88.5612C88.1212 109.23 87.0512 108.21 84.3712 108.21C81.3812 108.21 80.0312 109.61 80.0312 111.28C80.0312 112.95 80.9413 113.88 83.8813 114.37L85.2613 114.6C89.4513 115.3 91.1613 117.15 91.1613 120.06C91.1613 122.97 88.8212 125.36 84.3712 125.36C79.9212 125.36 78.0512 123.36 77.5312 120.68H80.0312V120.69Z" fill="black"/>
<path d="M109.12 120.69C108.18 123.47 106.31 125.37 102.57 125.37C98.1203 125.37 94.8203 122.07 94.8203 115.67C94.8203 109.27 98.1203 106 102.52 106C106.13 106 108.06 107.87 108.99 110.63H106.47C105.87 109.23 104.86 108.26 102.52 108.26C99.3703 108.26 97.2203 110.42 97.2203 115.67C97.2203 120.92 99.3803 123.11 102.58 123.11C105.03 123.11 106.04 122.12 106.64 120.69H109.14H109.12Z" fill="black"/>
<path d="M122.72 116.27L126.46 125.11H123.91L120.37 116.71H115.38V125.11H113.07V106.26H120.4C124.25 106.26 126.51 108.5 126.51 111.41C126.51 113.83 125.08 115.62 122.72 116.27ZM115.39 108.5V114.48H120.38C122.9 114.48 124.15 113.26 124.15 111.39C124.15 109.62 123.03 108.5 120.38 108.5H115.39Z" fill="black"/>
<path d="M130.859 106.26H133.229V125.11H130.859V106.26Z" fill="black"/>
<path d="M138.109 125.11V106.26H145.029C149.029 106.26 151.269 108.5 151.269 111.33C151.269 113.18 150.459 114.5 149.269 115.39C150.569 116.3 151.639 117.65 151.639 119.76C151.639 122.93 149.459 125.12 145.319 125.12H138.119L138.109 125.11ZM140.399 114.4H145.079C147.779 114.4 148.899 113.28 148.899 111.41C148.899 109.54 147.779 108.5 145.079 108.5H140.399V114.4ZM140.399 122.87H145.369C148.149 122.87 149.269 121.75 149.269 119.67C149.269 117.72 148.149 116.63 145.369 116.63H140.399V122.87Z" fill="black"/>
<path d="M155.691 125.11V106.26H167.471V108.5H158.061V114.4H164.331V116.64H158.061V122.88H167.471V125.12H155.691V125.11Z" fill="black"/>
<path d="M178.362 108.5V106.26H191.832V108.5H186.342V125.11H183.972V108.5H178.352H178.362Z" fill="black"/>
<path d="M202.641 106C206.901 106 210.211 109.33 210.211 115.67C210.211 122.01 206.911 125.37 202.641 125.37C198.371 125.37 195.051 122.07 195.051 115.67C195.051 109.27 198.351 106 202.641 106ZM202.641 123.11C205.601 123.11 207.811 120.9 207.811 115.67C207.811 110.44 205.601 108.26 202.641 108.26C199.681 108.26 197.441 110.44 197.441 115.67C197.441 120.9 199.651 123.11 202.641 123.11Z" fill="black"/>
<path d="M222.43 125.11V106.26H229.71C233.61 106.26 235.82 108.5 235.82 111.46C235.82 114.42 233.61 116.71 229.71 116.71H224.8V125.11H222.43ZM224.79 114.47H229.7C232.33 114.47 233.44 113.35 233.44 111.45C233.44 109.55 232.32 108.49 229.7 108.49H224.79V114.47Z" fill="black"/>
<path d="M246.551 106C250.821 106 254.121 109.33 254.121 115.67C254.121 122.01 250.821 125.37 246.551 125.37C242.281 125.37 238.961 122.07 238.961 115.67C238.961 109.27 242.261 106 246.551 106ZM246.551 123.11C249.511 123.11 251.731 120.9 251.731 115.67C251.731 110.44 249.521 108.26 246.551 108.26C243.581 108.26 241.351 110.44 241.351 115.67C241.351 120.9 243.561 123.11 246.551 123.11Z" fill="black"/>
<path d="M257.16 106.26H259.55L263.45 121.86L267.4 106.26H269.77L273.72 121.86L277.62 106.26H280.01L275.28 125.11H272.34L268.57 110.16L264.78 125.11H261.89L257.16 106.26Z" fill="black"/>
<path d="M283.73 125.11V106.26H295.51V108.5H286.101V114.4H292.37V116.64H286.101V122.88H295.51V125.12H283.73V125.11Z" fill="black"/>
<path d="M309.029 116.27L312.769 125.11H310.219L306.679 116.71H301.689V125.11H299.379V106.26H306.709C310.559 106.26 312.819 108.5 312.819 111.41C312.819 113.83 311.389 115.62 309.029 116.27ZM301.699 108.5V114.48H306.689C309.209 114.48 310.459 113.26 310.459 111.39C310.459 109.62 309.339 108.5 306.689 108.5H301.699Z" fill="black"/>
<path d="M38.6819 131.5V129.26H52.1519V131.5H46.6619V148.11H44.2919V131.5H38.6719H38.6819Z" fill="black"/>
<path d="M68.602 137.4V129.26H70.972V148.11H68.602V139.63H59.452V148.11H57.082V129.26H59.452V137.4H68.602Z" fill="black"/>
<path d="M76.8906 148.11V129.26H88.6706V131.5H79.2606V137.4H85.5306V139.64H79.2606V145.88H88.6706V148.12H76.8906V148.11Z" fill="black"/>
<path d="M117.429 148.11H114.929L113.469 143.56H106.289L104.829 148.11H102.359L108.419 129.26H111.359L117.419 148.11H117.429ZM109.889 132.27L107.029 141.32H112.779L109.889 132.27Z" fill="black"/>
<path d="M121.09 148.11V145.82L131.28 131.49H121.19V129.25H134.06V131.51L123.87 145.86H134.06V148.1H121.09V148.11Z" fill="black"/>
<path d="M145.949 129C150.219 129 153.519 132.33 153.519 138.67C153.519 145.01 150.219 148.37 145.949 148.37C141.679 148.37 138.359 145.07 138.359 138.67C138.359 132.27 141.659 129 145.949 129ZM145.949 146.11C148.909 146.11 151.129 143.9 151.129 138.67C151.129 133.44 148.919 131.26 145.949 131.26C142.979 131.26 140.749 133.44 140.749 138.67C140.749 143.9 142.959 146.11 145.949 146.11Z" fill="black"/>
<path d="M156.951 129.26H159.421L164.461 145.09L169.501 129.26H172.001L165.941 148.11H163.001L156.941 129.26H156.951Z" fill="black"/>
<path d="M186.172 148.11V129.26H193.092C197.092 129.26 199.332 131.5 199.332 134.33C199.332 136.18 198.522 137.5 197.332 138.39C198.632 139.3 199.702 140.65 199.702 142.76C199.702 145.93 197.522 148.12 193.382 148.12H186.182L186.172 148.11ZM188.462 137.4H193.142C195.842 137.4 196.962 136.28 196.962 134.41C196.962 132.54 195.842 131.5 193.142 131.5H188.462V137.4ZM188.462 145.87H193.432C196.212 145.87 197.332 144.75 197.332 142.67C197.332 140.72 196.212 139.63 193.432 139.63H188.462V145.87Z" fill="black"/>
<path d="M214.021 139.27L217.761 148.11H215.211L211.671 139.71H206.681V148.11H204.371V129.26H211.701C215.551 129.26 217.811 131.5 217.811 134.41C217.811 136.83 216.381 138.62 214.021 139.27ZM206.681 131.5V137.48H211.671C214.191 137.48 215.441 136.26 215.441 134.39C215.441 132.62 214.321 131.5 211.671 131.5H206.681Z" fill="black"/>
<path d="M222.781 129.26H225.151V148.11H222.781V129.26Z" fill="black"/>
<path d="M237.342 137.4H244.912C244.962 137.79 244.992 138.15 244.992 138.67C244.992 145.33 241.972 148.37 237.632 148.37C233.292 148.37 229.992 145.07 229.992 138.67C229.992 132.27 233.292 129 237.692 129C241.312 129 243.232 130.87 244.162 133.63H241.642C241.042 132.23 240.032 131.26 237.692 131.26C234.542 131.26 232.392 133.42 232.392 138.67C232.392 143.92 234.552 146.11 237.642 146.11C240.502 146.11 242.372 144.32 242.582 139.64H237.352V137.4H237.342Z" fill="black"/>
<path d="M263.57 148.11H261.07L259.61 143.56H252.43L250.97 148.11H248.5L254.56 129.26H257.5L263.56 148.11H263.57ZM256.03 132.27L253.17 141.32H258.92L256.03 132.27Z" fill="black"/>
<path d="M267.762 148.11V129.26H273.822C278.242 129.26 281.752 132.74 281.752 138.7C281.752 144.66 278.242 148.11 273.822 148.11H267.762ZM270.122 145.85H273.812C277.032 145.85 279.352 143.54 279.352 138.7C279.352 133.86 277.042 131.52 273.812 131.52H270.122V145.85Z" fill="black"/>
<path d="M286.449 148.11V129.26H298.229V131.5H288.819V137.4H295.089V139.64H288.819V145.88H298.229V148.12H286.449V148.11Z" fill="black"/>
</svg>
